<?xml version="1.0" encoding="UTF-8" standalone="no"?>
<svg
   xmlns:dc="http://purl.org/dc/elements/1.1/"
   xmlns:cc="http://creativecommons.org/ns#"
   xmlns:rdf="http://www.w3.org/1999/02/22-rdf-syntax-ns#"
   xmlns:svg="http://www.w3.org/2000/svg"
   xmlns="http://www.w3.org/2000/svg"
   viewBox="0 0 694.28003 260.34668"
   height="260.34668"
   width="694.28003"
   xml:space="preserve"
   id="svg2"
   version="1.1"><metadata
     id="metadata8"><rdf:RDF><cc:Work
         rdf:about=""><dc:format>image/svg+xml</dc:format><dc:type
           rdf:resource="http://purl.org/dc/dcmitype/StillImage" /></cc:Work></rdf:RDF></metadata><defs
     id="defs6" /><g
     transform="matrix(1.3333333,0,0,-1.3333333,0,260.34667)"
     id="g10"><g
       transform="scale(0.1)"
       id="g12"><path
         id="path14"
         style="fill:#231f20;fill-opacity:1;fill-rule:evenodd;stroke:none"
         d="m 4488.02,988.586 v 293.554 c 0,67.27 -5.75,112.18 -7.63,143.99 -3.87,24.27 -9.59,33.64 -15.33,41.09 -13.36,13.09 -55.43,18.73 -91.85,22.46 -24.85,1.87 -22.95,20.53 0,24.27 26.79,3.78 181.81,24.33 304.31,24.33 287.03,7.49 300.41,-157.05 300.41,-211.29 0,-78.54 -45.94,-138.35 -80.37,-158.9 l -38.31,-24.28 c -9.5,-5.63 -13.37,-11.26 -5.72,-28.08 65.09,-132.722 158.84,-250.539 225.83,-302.859 63.14,-50.516 112.91,-63.601 120.53,-65.457 7.65,-1.906 9.59,-13.086 3.86,-14.973 -7.7,-3.75 -40.18,-11.211 -80.37,-11.211 -70.84,0 -143.52,22.461 -187.52,59.817 -70.88,65.453 -120.56,153.328 -177.97,261.773 -17.23,35.54 -30.66,39.27 -51.65,37.37 -26.83,-1.83 -57.49,-5.55 -88.08,-5.55 -9.58,0 -11.49,-3.82 -11.49,-39.28 v -78.532 c 0,-59.863 1.91,-80.418 5.75,-102.867 11.49,-59.809 24.86,-76.625 109.06,-99.098 21.08,-5.593 21.08,-24.265 -1.87,-24.265 -51.68,0 -107.19,5.574 -162.69,5.574 -57.41,0 -116.72,-5.574 -170.28,-5.574 -21.06,0 -24.92,18.672 -3.85,24.265 72.75,18.731 89.95,33.645 97.6,87.907 1.88,26.183 7.63,72.914 7.63,145.816 z m 118.65,357.094 v -181.32 c 0,-20.55 1.91,-26.18 17.24,-28.09 24.84,-1.81 47.88,-1.81 88.04,-1.81 63.15,0 145.43,33.63 145.43,140.17 0,112.24 -76.54,211.32 -210.51,211.32 -26.83,0 -30.62,-5.64 -34.45,-18.73 -3.84,-11.18 -5.75,-35.54 -5.75,-121.54 v 0" /><path
         id="path16"
         style="fill:#231f20;fill-opacity:1;fill-rule:evenodd;stroke:none"
         d="m 3760.86,1033.46 v 200.05 c 0,112.17 0,147.72 -7.61,194.44 -7.65,48.63 -49.79,69.18 -97.61,80.42 -21.07,5.58 -19.1,26.18 1.91,26.18 63.13,0 107.16,-5.6 166.47,-5.6 h 197.14 c 101.43,0 166.47,1.87 183.67,7.45 9.59,5.61 17.25,7.51 19.18,7.51 3.79,0 9.53,-3.78 7.66,-13.09 -9.59,-44.87 -13.38,-114.05 -9.59,-160.77 1.93,-24.37 -22.99,-28.1 -26.77,-5.64 -7.68,41.09 -36.39,82.27 -72.72,91.63 -38.32,11.18 -72.73,13.09 -141.63,13.09 h -49.77 c -40.18,0 -43.96,-3.76 -47.83,-33.72 -1.88,-16.82 -3.84,-67.27 -3.84,-125.23 v -100.95 c 0,-22.44 0,-20.59 40.19,-24.32 h 40.17 c 107.19,0 151.22,5.63 168.44,11.24 22.98,7.45 38.22,24.3 43.97,33.63 5.75,9.36 19.17,5.63 17.3,-7.45 -3.87,-29.97 -9.59,-76.69 -9.59,-186.97 0,-14.99 -21.08,-16.86 -22.98,-1.9 -1.94,11.21 -7.68,28.08 -19.17,48.63 -19.12,31.73 -66.94,43 -166.47,43 h -57.41 c -28.7,0 -34.45,-1.9 -34.45,-24.33 v -87.84 c 0,-130.885 3.84,-177.604 17.24,-196.322 13.43,-20.551 55.5,-24.321 132.03,-24.321 45.91,0 91.85,1.875 120.55,7.5 28.7,3.731 51.71,16.821 70.83,35.539 15.33,18.645 26.83,46.719 34.46,69.157 5.73,14.933 24.85,13.086 24.85,-1.875 0,-18.731 -7.66,-89.727 -19.12,-145.821 -5.73,-24.336 -17.23,-26.179 -68.9,-26.179 l -396.14,5.574 c -55.47,0 -105.23,-5.574 -176,-5.574 -21.08,0 -21.08,22.449 -5.74,24.265 65.02,13.098 124.34,24.309 137.75,76.645 3.8,18.722 9.53,57.996 9.53,201.952 v 0" /><path
         id="path18"
         style="fill:#231f20;fill-opacity:1;fill-rule:evenodd;stroke:none"
         d="m 3033.5,1528.95 h 264.06 l 137.83,1.87 c 34.45,1.85 70.78,13.09 95.64,29.92 11.47,7.45 24.92,1.84 21.04,-11.25 -21.04,-50.49 -21.04,-99.09 -24.83,-168.26 -1.96,-16.82 -19.17,-20.55 -26.82,-3.73 -13.37,33.63 -26.8,65.45 -74.62,78.54 -32.54,7.46 -76.58,13.09 -166.46,13.09 -24.92,0 -26.82,-5.63 -28.71,-20.63 -3.87,-16.82 -7.7,-82.27 -7.7,-205.62 v -177.61 c 0,-125.309 0,-172.036 5.74,-216.887 9.59,-61.692 42.13,-69.211 116.78,-93.52 19.1,-5.593 17.19,-24.265 -7.71,-24.265 -65.04,0 -114.81,5.574 -189.42,5.574 -57.42,0 -99.49,-5.574 -177.97,-5.574 -22.95,0 -22.95,18.672 -3.85,24.265 67,18.731 120.61,26.184 126.34,76.645 3.8,26.183 11.49,84.176 11.49,224.402 v 185.08 c 0,132.78 -3.84,175.78 -3.84,190.69 0,31.82 -3.85,37.45 -28.71,37.45 -38.28,0 -162.67,1.82 -206.65,-20.63 -28.71,-16.82 -47.88,-54.18 -55.5,-78.45 -5.75,-18.73 -26.83,-15 -26.83,5.55 0,16.81 11.49,91.62 11.49,170.17 0,22.42 13.43,24.32 24.92,13.08 11.47,-11.21 26.74,-16.84 47.82,-22.45 19.11,-5.58 57.41,-7.45 166.47,-7.45 v 0" /><path
         id="path20"
         style="fill:#231f20;fill-opacity:1;fill-rule:evenodd;stroke:none"
         d="m 2197.28,1033.46 v 200.05 c 0,112.17 0,147.72 -7.65,194.44 -7.68,48.63 -49.75,69.18 -97.56,80.42 -21.09,5.58 -19.18,26.18 1.87,26.18 63.15,0 107.19,-5.6 166.47,-5.6 h 197.13 c 101.39,0 166.47,1.87 183.71,7.45 9.59,5.61 17.2,7.51 19.11,7.51 3.84,0 9.59,-3.78 7.68,-13.09 -9.59,-44.87 -13.43,-114.05 -9.59,-160.77 1.91,-24.37 -22.95,-28.1 -26.79,-5.64 -7.65,41.09 -36.35,82.27 -72.73,91.63 -38.23,11.18 -72.68,13.09 -141.55,13.09 h -49.78 c -40.2,0 -44.04,-3.76 -47.82,-33.72 -1.96,-16.82 -3.85,-67.27 -3.85,-125.23 v -100.95 c 0,-22.44 0,-20.59 40.18,-24.32 h 40.18 c 107.19,0 151.14,5.63 168.38,11.24 22.96,7.45 38.29,24.3 44.04,33.63 5.72,9.36 19.16,5.63 17.21,-7.45 -3.85,-29.97 -9.59,-76.69 -9.59,-186.97 0,-14.99 -21.02,-16.86 -22.95,-1.9 -1.91,11.21 -7.66,28.08 -19.12,48.63 -19.11,31.73 -66.99,43 -166.47,43 h -57.41 c -28.7,0 -34.45,-1.9 -34.45,-24.33 v -87.84 c 0,-130.885 3.85,-177.604 17.21,-196.322 13.38,-20.551 55.53,-24.321 132.06,-24.321 45.91,0 91.82,1.875 120.52,7.5 28.71,3.731 51.69,16.821 70.86,35.539 15.24,18.645 26.74,46.719 34.42,69.157 5.74,14.933 24.86,13.086 24.86,-1.875 0,-18.731 -7.62,-89.727 -19.12,-145.821 -5.74,-24.336 -17.2,-26.179 -68.87,-26.179 l -396.16,5.574 c -55.5,0 -105.23,-5.574 -176.05,-5.574 -21,0 -21,22.449 -5.76,24.265 65.12,13.098 124.4,24.309 137.8,76.645 3.84,18.722 9.58,57.996 9.58,201.952 v 0" /><path
         id="path22"
         style="fill:#231f20;fill-opacity:1;fill-rule:evenodd;stroke:none"
         d="m 342.355,1033.46 v 200.05 c 0,112.17 0,147.72 -7.703,194.44 -7.625,48.63 -49.699,69.18 -97.578,80.42 -21.074,5.58 -19.109,26.18 1.887,26.18 63.203,0 107.184,-5.6 166.523,-5.6 h 197.071 c 101.445,0 166.468,1.87 183.715,7.45 9.574,5.61 17.203,7.51 19.164,7.51 3.789,0 9.531,-3.78 7.629,-13.09 -9.59,-44.87 -13.372,-114.05 -9.59,-160.77 1.961,-24.37 -22.953,-28.1 -26.735,-5.64 -7.715,41.09 -36.41,82.27 -72.738,91.63 -38.285,11.18 -72.734,13.09 -141.605,13.09 h -49.782 c -40.199,0 -43.98,-3.76 -47.816,-33.72 -1.914,-16.82 -3.848,-67.27 -3.848,-125.23 v -100.95 c 0,-22.44 0,-20.59 40.168,-24.32 h 40.196 c 107.183,0 151.191,5.63 168.429,11.24 22.957,7.45 38.285,24.3 44.039,33.63 5.711,9.36 19.11,5.63 17.207,-7.45 -3.84,-29.97 -9.582,-76.69 -9.582,-186.97 0,-14.99 -21.078,-16.86 -22.953,-1.9 -1.914,11.21 -7.656,28.08 -19.121,48.63 -19.18,31.73 -66.996,43 -166.527,43 h -57.41 c -28.696,0 -34.446,-1.9 -34.446,-24.33 v -87.84 c 0,-130.885 3.848,-177.604 17.215,-196.322 13.422,-20.551 55.524,-24.321 132.106,-24.321 45.914,0 91.816,1.875 120.527,7.5 28.695,3.731 51.683,16.821 70.801,35.539 15.3,18.645 26.797,46.719 34.422,69.157 5.742,14.933 24.859,13.086 24.859,-1.875 0,-18.731 -7.625,-89.727 -19.117,-145.821 -5.742,-24.336 -17.207,-26.179 -68.871,-26.179 l -396.114,5.574 c -55.504,0 -105.281,-5.574 -176.058,-5.574 -21.039,0 -21.039,22.449 -5.742,24.265 65.054,13.098 124.394,24.309 137.793,76.645 3.847,18.722 9.585,57.996 9.585,201.952 v 0" /><path
         id="path24"
         style="fill:#1e5aaf;fill-opacity:1;fill-rule:evenodd;stroke:none"
         d="m 467.535,1946.85 c 308.551,-9.37 545.405,-175.33 798.965,-483.83 71.75,-86.44 143.5,-184.61 210.5,-278.11 9.54,-11.66 14.35,-11.66 33.47,14.02 50.23,65.42 102.87,137.93 145.92,208.02 35.88,67.79 16.76,81.8 -66.98,109.8 -26.3,7.07 -23.94,30.44 2.41,30.44 86.1,0 136.33,-7.01 191.32,-7.01 57.41,0 112.46,7.01 177.04,7.01 28.7,0 26.29,-23.37 2.41,-30.44 -124.4,-42.01 -138.75,-53.73 -227.26,-151.89 -83.76,-91.16 -138.75,-158.9 -198.57,-231.38 -9.53,-14.02 -9.53,-18.68 2.41,-35.02 131.57,-179.98 243.97,-345.94 387.54,-514.171 263.09,-310.851 509.48,-497.8437 784.56,-497.8437 188.98,0 270.32,56.0857 320.55,121.5427 31.11,39.719 43.05,77.168 54.99,109.875 7.18,16.336 16.76,14.012 26.35,4.657 9.52,-9.364 11.94,-23.387 7.18,-42.079 C 3043.75,79.4648 2842.84,0 2641.92,0 2278.32,0 2010.41,254.719 1828.61,462.746 1730.56,577.277 1670.74,666.074 1608.52,750.227 L 1443.48,983.93 c -9.53,14.019 -14.35,16.34 -23.89,4.656 -43.1,-53.738 -136.39,-179.973 -198.55,-280.441 -59.82,-98.153 -31.12,-105.165 47.82,-135.575 26.35,-9.308 26.35,-30.382 -4.77,-30.382 -59.82,0 -121.98,7.003 -181.8,7.003 -57.41,0 -105.227,-7.003 -162.63,-7.003 -28.762,0 -26.347,21.074 -4.82,30.382 126.81,44.422 138.75,60.789 275.08,224.375 l 184.22,229.065 c 19.11,23.34 19.11,27.99 9.52,42.07 -112.39,158.9 -263.08,357.58 -385.07,481.41 -220.082,222.03 -428.18,322.54 -643.508,322.54 -198.508,0 -275.082,-114.51 -294.2031,-231.39 -4.7617,-25.73 -23.9336,-30.35 -38.2851,-18.71 -16.71099,11.71 -31.05864,37.44 -16.71099,72.5 14.35549,37.37 52.58989,91.09 112.40219,137.89 93.289,74.74 188.981,114.53 349.25,114.53 v 0" /><path
         id="path26"
         style="fill:#231f20;fill-opacity:1;fill-rule:evenodd;stroke:none"
         d="m 1242.05,1796.21 v 87.92 c 0,29.3 -1.09,34.12 -3.27,38.88 -3.78,7.99 -15.28,11.19 -25.09,13.86 -4.87,0.55 -4.87,6.92 0.59,6.92 21.81,0 29.97,-1.6 43.61,-1.6 16.38,0 25.63,1.6 45.24,1.6 6.54,0 7.12,-5.84 1.66,-6.92 -11.46,-2.14 -16.93,-5.87 -20.22,-11.17 -7.03,-9.05 -8.71,-36.8 -8.71,-73.51 v -39.44 c 0,-29.35 7.66,-50.66 19.12,-60.24 9.81,-9.58 27.27,-19.68 51.27,-19.68 12.5,0 31.61,0.51 45.23,14.92 14.18,12.75 22.4,38.34 22.4,87.39 v 39.41 c 0,24.52 -2.77,35.66 -5.47,42.61 -4.37,10.12 -13.64,14.4 -30.02,19.71 -4.87,1.59 -3.78,6.92 1.09,6.92 15.85,0 31.12,-1.6 46.91,-1.6 13.08,0 25.08,1.6 35.99,1.6 6.01,0 6.55,-5.84 1.08,-6.92 -9.25,-2.14 -17.46,-6.9 -21.8,-18.08 -2.69,-6.96 -4.37,-18.17 -5.47,-39.98 l -2.69,-62.84 c -2.74,-63.46 -42.02,-106.04 -105.27,-106.04 -29.98,0 -55.06,8.5 -70.34,26.63 -10.4,12.81 -15.84,29.29 -15.84,59.65 z m 555.16,31.99 v -38.35 c 0,-39.98 1.1,-62.88 1.69,-67.16 1.06,-9.03 -2.19,-10.13 -5.47,-10.13 -4.37,0 -10.91,3.73 -14.74,6.96 -6.56,5.32 -12,10.63 -13.09,12.22 l -134.68,157.69 c -1.66,1.6 -2.75,-0.53 -3.28,-4.76 -0.57,-4.82 -0.57,-14.41 -0.57,-37.84 v -45.29 c 0,-62.85 10.38,-69.8 21.81,-74.04 l 15.84,-5.86 c 4.37,-1.62 4.37,-7.48 -2.75,-6.94 -13.09,0.55 -27.27,1.59 -42.54,1.59 -15.25,0 -31.07,-1.59 -42.52,-1.59 -7.07,0 -7.07,4.82 -2.19,6.94 l 10.9,4.24 c 8.71,3.23 16.93,9.59 19.65,18.14 2.74,10.12 4.93,43.7 4.93,83.14 v 55.38 c 0,22.9 -2.19,28.25 -6.02,35.15 -6.56,11.18 -21.84,16.01 -33.25,19.18 -4.94,1.08 -4.94,6.92 1.1,6.92 15.27,0 28.34,-2.11 40.86,-2.11 4.38,0 8.72,0 15.28,0.51 8.21,0.58 9.81,0 10.37,-2.64 1.63,-5.85 4.87,-12.27 14.18,-22.9 15.28,-20.8 60.52,-74.05 123.25,-139.62 3.79,-3.73 4.87,-3.22 4.87,1.6 v 52.25 c 0,33.03 -1.59,50.07 -3.77,69.74 -2.76,25.08 -8.72,29.35 -35.47,36.25 -5.46,1.08 -4.37,6.92 1.07,6.92 14.77,0 30.56,-1.6 46.92,-1.6 14.19,0 27.25,1.6 39.27,1.6 6.53,0 6.53,-4.77 1.06,-6.92 -13.08,-5.31 -23.4,-10.63 -27.24,-29.81 -2.72,-15.44 -5.47,-43.69 -5.47,-78.86 z m 180.61,-22.91 v 47.41 c 0,31.97 0,52.23 -2.2,63.41 -3.24,13.86 -15.27,18.09 -26.17,20.76 -4.35,1.08 -3.85,6.92 2.72,6.92 21.8,0 31.61,-1.6 47.98,-1.6 12,0 21.81,1.6 37.08,1.6 6.54,0 6.54,-5.84 1.1,-6.92 -9.26,-2.14 -21.83,-6.4 -23.99,-19.18 -2.72,-12.76 -2.72,-33.02 -2.72,-64.99 v -47.41 c 0,-31.99 0,-51.15 3.28,-64.46 2.69,-12.26 14.17,-16.55 27.27,-19.19 4.88,-1.08 4.88,-6.94 -1.68,-6.94 -17.97,0 -31.03,1.59 -46.31,1.59 -13.09,0 -26.77,-1.59 -43.64,-1.59 -6.03,0 -6.53,5.86 -1.09,6.94 10.9,1.61 23.43,6.93 25.62,16.52 2.75,15.98 2.75,35.14 2.75,67.13 z m 372.56,63.94 -45.83,-100.18 c -9.81,-21.3 -14.18,-34.09 -18.01,-40.48 -8.16,-15.47 -15.29,-21.33 -17.44,-21.33 -2.72,0 -4.38,2.1 -5.97,6.42 l -24,65.51 -42.55,107.1 c -14.18,34.11 -18.02,39.43 -31.62,46.33 l -9.3,4.27 c -4.87,2.15 -5.97,6.92 1.66,6.92 16.36,0 26.68,-1.6 39.77,-1.6 16.96,0 32.73,1.6 49.08,1.6 6.56,0 6.56,-5.33 1.68,-6.92 l -14.19,-5.31 c -14.73,-6.41 -10.89,-15.45 -3.27,-37.84 15.78,-45.26 33.24,-87.34 49.61,-123.05 3.25,-7.48 4.93,-7.98 8.72,0 16.92,34.09 45.8,104.42 53.45,128.4 7.12,23.44 3.26,29.8 -13.62,35.66 l -6.03,2.14 c -4.34,1.59 -3.78,6.92 1.68,6.92 15.25,0 28.87,-1.6 41.97,-1.6 13.65,0 27.27,1.6 39.83,1.6 6.5,0 5.96,-4.77 1.09,-6.92 l -12,-5.31 c -15.84,-6.41 -24,-19.17 -44.71,-62.33 z m 199.07,-68.2 v 57.01 c 0,31.96 0,42.07 -2.18,55.39 -2.19,13.85 -14.19,19.71 -27.78,22.9 -6.03,1.62 -5.47,7.46 0.51,7.46 18.05,0 30.54,-1.6 47.48,-1.6 h 56.14 c 28.93,0 47.49,0.58 52.36,2.13 2.75,1.6 4.92,2.18 5.43,2.18 1.11,0 2.79,-1.09 2.19,-3.73 -2.7,-12.8 -3.78,-32.56 -2.7,-45.88 0.51,-6.89 -6.52,-7.99 -7.61,-1.55 -2.18,11.72 -10.4,23.45 -20.74,26.08 -10.91,3.2 -20.72,3.73 -40.34,3.73 h -14.18 c -11.49,0 -12.59,-1.04 -13.68,-9.59 -0.51,-4.77 -1.1,-19.18 -1.1,-35.71 v -28.76 c 0,-6.36 0,-5.86 11.5,-6.89 h 11.4 c 30.55,0 43.14,1.54 48.03,3.16 6.52,2.13 10.89,6.96 12.54,9.59 1.6,2.69 5.47,1.6 4.88,-2.13 -1.09,-8.5 -2.69,-21.81 -2.69,-53.28 0,-4.24 -6.02,-4.75 -6.56,-0.51 -0.55,3.17 -2.15,7.99 -5.43,13.85 -5.47,9.05 -19.12,12.28 -47.49,12.28 h -16.34 c -8.16,0 -9.84,-0.6 -9.84,-6.95 v -25.04 c 0,-37.3 1.1,-50.62 4.94,-55.98 3.82,-5.85 15.81,-6.91 37.61,-6.91 13.09,0 26.19,0.55 34.4,2.15 8.12,1.04 14.69,4.76 20.13,10.12 4.36,5.32 7.64,13.32 9.83,19.68 1.66,4.31 7.12,3.73 7.12,-0.51 0,-5.35 -2.19,-25.56 -5.46,-41.56 -1.66,-6.91 -4.94,-7.46 -19.63,-7.46 l -112.93,1.59 c -15.78,0 -29.97,-1.59 -50.17,-1.59 -5.97,0 -5.97,6.41 -1.59,6.94 18.52,3.74 35.43,6.93 39.26,21.82 1.09,5.32 2.69,16.53 2.69,57.57 z m 295.57,-12.81 v 83.64 c 0,19.17 -1.64,31.98 -2.18,41.07 -1.1,6.86 -2.75,9.58 -4.34,11.69 -3.85,3.75 -15.87,5.35 -26.19,6.38 -7.12,0.56 -6.55,5.87 0,6.95 7.63,1.07 51.78,6.93 86.67,6.93 81.82,2.13 85.66,-44.77 85.66,-60.21 0,-22.39 -13.08,-39.44 -22.9,-45.29 l -10.9,-6.95 c -2.78,-1.55 -3.87,-3.14 -1.68,-7.97 18.55,-37.84 45.3,-71.42 64.35,-86.3 18.03,-14.41 32.21,-18.14 34.4,-18.64 2.18,-0.59 2.69,-3.73 1.08,-4.27 -2.18,-1.09 -11.49,-3.19 -22.89,-3.19 -20.22,0 -40.96,6.37 -53.46,17.05 -20.2,18.64 -34.39,43.67 -50.73,74.55 -4.9,10.17 -8.74,11.22 -14.72,10.68 -7.62,-0.51 -16.33,-1.59 -25.08,-1.59 -2.75,0 -3.26,-1.09 -3.26,-11.21 v -22.37 c 0,-17.08 0.51,-22.91 1.6,-29.3 3.28,-17.04 7.12,-21.86 31.12,-28.23 5.97,-1.62 5.97,-6.94 -0.59,-6.94 -14.69,0 -30.53,1.59 -46.31,1.59 -16.37,0 -33.29,-1.59 -48.57,-1.59 -5.97,0 -7.07,5.32 -1.1,6.94 20.72,5.33 25.68,9.59 27.84,25.04 0.54,7.46 2.18,20.77 2.18,41.54 z m 33.83,101.78 v -51.72 c 0,-5.85 0.51,-7.4 4.88,-7.96 7.13,-0.53 13.66,-0.53 25.06,-0.53 18.06,0 41.46,9.59 41.46,39.95 0,31.98 -21.81,60.23 -59.98,60.23 -7.63,0 -8.72,-1.6 -9.82,-5.35 -1.09,-3.2 -1.6,-10.1 -1.6,-34.62 z m 355.63,58.61 c 21.24,0 31.55,-6.93 36.48,-10.15 5.47,-3.73 5.98,-8.49 5.98,-11.18 0,-2.66 -0.51,-5.3 -1.6,-9.59 -0.59,-4.26 -1.65,-11.21 -1.65,-20.8 0,-5.86 -7.06,-5.86 -7.66,0.59 -0.51,4.24 -2.69,10.62 -9.76,18.63 -9.3,10.64 -21.79,15.98 -37.07,15.98 -18.53,0 -32.21,-12.3 -32.21,-33.6 0,-29.26 22.39,-40.45 45.3,-48.44 32.15,-11.18 59.92,-22.89 59.92,-61.3 0,-29.79 -19.06,-50.06 -33.75,-60.74 -16.92,-12.22 -35.98,-18.08 -54,-18.08 -17.47,0 -31.65,3.73 -41.96,9.59 -9.85,6.36 -15.87,12.76 -18.03,20.21 -1.09,3.73 1.65,9.64 4.34,13.31 2.78,4.29 7.12,16.01 9.3,20.77 1.61,3.73 6.54,3.22 7.07,-1.53 0,-3.23 0,-8.05 3.85,-16.02 7.06,-14.35 30.54,-27.15 51.77,-27.15 25.67,0 40.36,13.82 40.36,40.98 0,28.25 -21.25,41.57 -50.18,51.71 -37.08,12.75 -54.52,29.8 -54.52,57.52 0,13.85 4.34,30.38 20.71,45.83 13.1,12.8 33.81,23.46 57.31,23.46 z m 207.22,-143.32 v 47.41 c 0,31.97 0,52.23 -2.18,63.41 -3.27,13.86 -15.26,18.09 -26.2,20.76 -4.33,1.08 -3.77,6.92 2.79,6.92 21.8,0 31.61,-1.6 47.98,-1.6 12,0 21.81,1.6 37.09,1.6 6.52,0 6.52,-5.84 1.09,-6.92 -9.31,-2.14 -21.84,-6.4 -23.99,-19.18 -2.79,-12.76 -2.79,-33.02 -2.79,-64.99 v -47.41 c 0,-31.99 0,-51.15 3.3,-64.46 2.74,-12.26 14.17,-16.55 27.26,-19.19 4.93,-1.08 4.93,-6.94 -1.59,-6.94 -18.02,0 -31.12,1.59 -46.39,1.59 -13.09,0 -26.69,-1.59 -43.64,-1.59 -5.98,0 -6.54,5.86 -1.11,6.94 10.94,1.61 23.5,6.93 25.69,16.52 2.69,15.98 2.69,35.14 2.69,67.13 z m 253.67,136.9 h 75.25 l 39.27,0.58 c 9.81,0.51 20.22,3.73 27.28,8.5 3.28,2.1 7.12,0.5 6.03,-3.22 -6.03,-14.35 -6.03,-28.26 -7.13,-47.94 -0.5,-4.77 -5.47,-5.85 -7.62,-1.04 -3.82,9.59 -7.65,18.62 -21.25,22.35 -9.29,2.13 -21.81,3.73 -47.48,3.73 -7.06,0 -7.63,-1.6 -8.16,-5.86 -1.09,-4.77 -2.18,-23.44 -2.18,-58.61 v -50.57 c 0,-35.71 0,-49.03 1.63,-61.83 2.74,-17.58 11.99,-19.71 33.29,-26.64 5.44,-1.62 4.88,-6.94 -2.19,-6.94 -18.55,0 -32.73,1.59 -54,1.59 -16.38,0 -28.37,-1.59 -50.71,-1.59 -6.54,0 -6.54,5.32 -1.1,6.94 19.07,5.33 34.34,7.47 35.99,21.82 1.1,7.45 3.29,23.99 3.29,63.93 v 52.76 c 0,37.84 -1.1,50.06 -1.1,54.37 0,9.03 -1.09,10.63 -8.21,10.63 -10.9,0 -46.31,0.55 -58.89,-5.86 -8.16,-4.77 -13.59,-15.45 -15.78,-22.4 -1.65,-5.27 -7.63,-4.23 -7.63,1.6 0,4.85 3.26,26.13 3.26,48.52 0,6.36 3.78,6.9 7.06,3.73 3.27,-3.2 7.65,-4.82 13.68,-6.42 5.43,-1.55 16.34,-2.13 47.4,-2.13 z m 379.58,-136.4 v -27.16 c 0,-19.67 0.51,-32.48 3.78,-38.34 3.28,-9.59 10.4,-13.32 28.34,-18.65 4.96,-1.62 4.96,-6.94 -1.6,-6.94 -14.74,0 -32.2,1.59 -47.4,1.59 -18.05,0 -32.2,-1.59 -50.18,-1.59 -6.02,0 -6.56,5.32 -1.68,6.94 10.41,3.2 24.59,6.93 30.03,14.36 3.28,4.29 5.47,14.91 5.47,37.3 v 27.16 c 0,10.69 -1.69,15.51 -5.47,22.96 -13.66,26.63 -27.83,51.13 -44.21,75.65 -18.53,27.68 -20.72,32.49 -37.59,37.8 -5.46,1.59 -6.02,6.92 0,6.92 15.28,0 30.52,-1.6 40.88,-1.6 14.74,0 25.64,1.6 42.01,1.6 6.56,0 6.56,-5.33 1.62,-6.92 -20.15,-6.9 -23.99,-8 -14.18,-26.66 8.72,-17.55 25.65,-46.84 41.43,-69.74 2.77,-3.72 4.37,-2.7 7.07,1.54 11.48,17.63 29.45,46.39 38.17,68.2 7.66,17.07 2.74,20.79 -14.19,26.66 -4.33,1.08 -3.78,6.92 3.29,6.92 14.74,0 25.08,-1.6 39.27,-1.6 10.39,0 21.81,1.6 33.8,1.6 5.47,0 6.56,-5.33 1.09,-6.92 -23.99,-8.5 -27.77,-13.32 -44.14,-34.12 -19.63,-25.03 -40.37,-57.01 -49.65,-74.55 -4.37,-7.99 -5.96,-15.45 -5.96,-22.41 z m 497.92,142.82 c 68.14,0 110.15,-50.62 110.15,-113.47 0,-36.24 -11.99,-63.46 -30.54,-83.64 -22.9,-25.08 -57.81,-41.57 -97.57,-41.57 -64.37,0 -112.36,45.3 -112.36,116.12 0,33.59 12,65.57 39.78,88.97 26.17,22.4 58.92,33.59 90.54,33.59 z m -1.1,-221.64 c 53.45,0 71.43,43.12 71.43,93.76 0,59.68 -26.12,110.83 -88.89,110.83 -56.71,0 -71.39,-53.26 -71.39,-98.04 0,-54.89 27.78,-106.55 88.85,-106.55 z m 257.52,74.06 v 57.01 c 0,27.13 -1.07,41.03 -2.16,50.06 -2.19,18.65 -13.09,25.6 -31.12,28.77 -4.9,0.55 -4.37,6.92 1.1,6.92 17.99,0 34.89,-1.6 52.91,-1.6 h 68.71 c 15.28,0 31.64,0.58 38.71,3.73 2.15,1.09 4.93,0.58 4.35,-3.15 -2.2,-12.8 -4.35,-32.56 -3.79,-45.88 0.5,-5.27 -6.03,-6.89 -7.63,-1.55 -1.68,9.59 -8.22,22.35 -20.74,26.08 -10.9,3.2 -20.72,3.73 -40.36,3.73 h -15.84 c -6.53,0 -7.63,-2.14 -8.72,-7.46 -1.09,-6.9 -1.6,-22.35 -1.6,-37.84 v -32.49 c 0,-6.89 0,-7.45 11.41,-7.45 h 13.68 c 27.77,0 40.34,1.07 44.71,2.1 5.47,1.63 10.35,3.73 12.54,8.04 2.15,4.27 6.52,3.17 6.02,-1.09 -1.1,-8.49 -2.78,-25.03 -2.18,-54.35 0,-3.75 -6.57,-4.26 -7.14,-1.04 -1.61,4.23 -2.71,9.59 -6.55,15.95 -5.97,10.18 -19.63,12.82 -47.4,12.82 h -11.99 c -12.59,0 -13.1,-0.54 -13.1,-7.46 v -15.45 c 0,-38.35 1.1,-46.92 3.27,-55.41 2.18,-11.74 13.08,-17.05 33.82,-22.38 4.34,-1.08 4.87,-6.94 -3.28,-6.94 -12.59,0 -24.58,1.59 -44.21,1.59 -17.96,0 -34.33,-1.59 -53.45,-1.59 -5.96,0 -5.44,5.32 -1.6,6.94 12.51,3.74 25.6,9.59 28.37,20.27 2.19,10.6 3.26,19.17 3.26,59.12 v 0" /></g></g></svg>