<svg width="259" height="259" viewBox="0 0 259 259" fill="none" xmlns="http://www.w3.org/2000/svg">
<g filter="url(#filter0_d)">
<circle cx="127.5" cy="127.5" r="125.5" fill="#079ED4" fill-opacity="0.90625"/>
<path d="M170.064 95.2955C170.027 95.2594 162.702 102.5 148.124 117.054L137.895 106.826L159.69 85.0305C148.22 78.127 133.485 79.898 123.931 89.4522C120.279 93.1023 117.651 97.6484 116.31 102.635C114.97 107.621 114.964 112.872 116.293 117.862L116.51 118.669L82.3532 152.813C81.6062 153.56 81.6062 154.789 82.3532 155.536L99.3893 172.572C100.136 173.319 101.365 173.319 102.112 172.572L136.245 138.44L137.052 138.657C147.136 141.344 157.967 138.548 165.485 131.03C175.052 121.476 176.823 106.741 170.064 95.2955Z" fill="black"/>
</g>
<defs>
<filter id="filter0_d" x="0" y="0" width="259" height="259" filterUnits="userSpaceOnUse" color-interpolation-filters="sRGB">
<feFlood flood-opacity="0" result="BackgroundImageFix"/>
<feColorMatrix in="SourceAlpha" type="matrix" values="0 0 0 0 0 0 0 0 0 0 0 0 0 0 0 0 0 0 127 0"/>
<feOffset dx="2" dy="2"/>
<feGaussianBlur stdDeviation="2"/>
<feColorMatrix type="matrix" values="0 0 0 0 0 0 0 0 0 0 0 0 0 0 0 0 0 0 0.25 0"/>
<feBlend mode="normal" in2="BackgroundImageFix" result="effect1_dropShadow"/>
<feBlend mode="normal" in="SourceGraphic" in2="effect1_dropShadow" result="shape"/>
</filter>
</defs>
</svg>
