<svg width="259" height="259" viewBox="0 0 259 259" fill="none" xmlns="http://www.w3.org/2000/svg">
<g filter="url(#filter0_d)">
<circle cx="127.5" cy="127.5" r="125.5" fill="#079ED4" fill-opacity="0.90625"/>
<path d="M107.6 181.35L63.5 184.95L77.225 65.2501L119.975 62.5501L107.6 181.35Z" fill="#DFE9EF"/>
<path d="M156.654 193.5L107.604 181.35L119.979 62.5501L151.029 76.0501L156.654 193.5Z" fill="#BBC3C7"/>
<path d="M198.496 178.2L156.646 193.5L151.021 76.05L184.771 58.5L198.496 178.2Z" fill="#DFE9EF"/>
<path d="M108.727 171.225L74.3018 173.925L84.8768 73.125L119.077 71.1L108.727 171.225Z" fill="#5DF6FF"/>
<path d="M156.204 184.5L108.729 171.225L119.079 71.1L151.479 84.6L156.204 184.5Z" fill="#00C0CF"/>
<path d="M189.279 172.125L156.204 184.5L151.479 84.6L178.254 71.775L189.279 172.125Z" fill="#5DF6FF"/>
<g opacity="0.7">
<path opacity="0.7" d="M107.6 135C106.925 135.225 106.25 135.675 105.8 136.125L106.025 136.35C101.75 144.225 108.5 146.925 108.5 146.925C105.8 160.65 111.425 165.15 111.425 165.15C110.075 154.8 118.175 148.05 118.175 148.05C120.425 137.475 110.75 135.45 107.6 135Z" fill="#F361F5"/>
<path opacity="0.7" d="M104.9 134.1C100.85 131.4 100.85 127.125 100.85 127.125C107.6 127.125 115.025 117.225 115.025 117.225C110.075 101.475 108.05 114.75 108.05 114.75C100.85 107.1 110.075 103.5 110.075 103.5C104.45 101.25 101.975 94.9501 101.975 94.9501C101.75 99.0001 99.95 98.7751 99.95 98.7751C87.125 91.8001 84.875 103.05 84.875 103.05C86.9 109.125 82.625 109.8 82.625 109.8C86.9 110.475 89.15 105.075 89.15 105.075C97.925 109.125 93.2 123.975 93.2 123.975C96.575 125.775 97.475 132.075 97.475 132.075C99.95 132.75 102.2 134.1 104 135.225C104.225 134.55 104.45 134.325 104.9 134.1Z" fill="#EDBA53"/>
<path opacity="0.7" d="M118.397 90.2251C118.397 90.2251 114.572 87.7501 108.272 91.5751C108.272 91.5751 106.697 105.75 118.397 90.2251Z" fill="#EEF8FB"/>
<path opacity="0.7" d="M127.852 93.3751C122.902 85.2751 114.802 96.3001 114.802 96.3001C117.727 98.5501 117.952 100.575 117.502 102.375C115.477 109.125 118.177 111.15 118.177 111.15C119.752 105.525 125.152 104.625 125.152 104.625C124.477 99.4501 127.852 93.3751 127.852 93.3751Z" fill="#5F5CFF"/>
<path opacity="0.7" d="M141.571 129.825C141.121 130.05 140.671 130.05 140.221 129.825C139.096 128.7 138.421 127.35 137.746 126C137.521 125.775 137.521 125.55 137.521 125.325C133.696 123.975 126.271 122.625 125.146 132.975C125.146 132.975 126.496 139.95 131.221 136.35C131.221 136.35 136.396 137.25 134.371 146.475C134.371 146.475 135.271 153.675 139.771 153C139.771 153 140.896 142.65 146.746 134.55C146.521 134.775 144.271 137.025 141.571 129.825Z" fill="#FF7033"/>
<path opacity="0.7" d="M178.927 94.725C178.927 94.725 167.902 98.55 155.752 97.425C155.752 97.425 156.877 93.825 152.602 93.375C152.602 93.375 146.977 100.125 149.452 103.95C149.452 103.95 148.327 110.7 146.977 100.8C146.977 100.8 144.727 106.65 141.352 105.3C141.352 105.3 140.452 111.15 138.427 107.325C138.427 107.325 140.002 108 140.452 106.2C140.452 106.2 135.727 101.475 133.027 108.675C133.027 108.675 130.777 109.575 131.677 112.725C131.677 112.725 133.252 110.025 134.152 114.075C134.152 114.075 135.052 113.4 135.277 108.225C135.277 108.225 137.527 107.1 135.727 111.375C135.727 111.375 140.677 111.375 133.027 115.65C133.027 115.65 132.577 115.65 132.352 114.075C132.352 114.075 131.227 117.9 128.752 119.25C128.752 119.25 129.427 120.825 127.627 121.5C127.627 121.5 126.727 123.975 128.977 123.975C128.977 123.975 131.002 118.35 134.827 122.85C134.827 122.85 135.502 122.625 134.377 120.375C134.377 120.375 136.402 121.05 137.077 123.975C137.077 123.975 138.202 123.75 138.427 121.275C138.427 121.275 140.002 117.9 142.477 121.95C142.477 121.95 139.102 121.05 138.202 124.2C138.202 124.2 139.777 123.525 140.677 124.425C140.677 124.425 140.677 126 139.777 126.45C140.227 127.125 140.677 128.025 141.352 128.475C141.802 128.925 141.802 129.375 141.577 129.825C143.377 132.75 146.527 136.35 149.002 130.5C149.002 130.5 145.852 132.075 144.952 127.575C144.952 127.575 152.827 128.475 154.852 136.35C154.852 136.35 157.102 134.775 157.777 129.6C157.777 129.6 160.477 129.825 163.627 136.35C163.627 136.35 164.977 136.125 164.302 131.85C164.302 131.85 169.477 129.825 166.552 121.5C166.552 121.5 170.827 127.125 169.477 119.925C169.477 119.925 174.202 114.525 168.577 110.925C168.577 110.925 168.802 106.875 172.177 107.55C172.177 107.55 175.552 99.225 173.977 109.125C173.977 109.125 173.977 111.15 176.227 113.175C176.227 113.175 177.127 110.025 175.552 106.425C176.002 105.975 179.377 99.9 178.927 94.725Z" fill="#6C732D"/>
<g opacity="0.7">
<path opacity="0.7" d="M130.775 116.55C131.675 114.525 128.75 112.5 128.75 112.5C129.2 117 129.875 118.35 130.775 116.55Z" fill="#F361F5"/>
<path opacity="0.7" d="M127.177 116.775C127.177 116.775 128.527 116.55 128.302 114.975C128.302 114.975 127.177 114.975 127.177 116.775Z" fill="#F361F5"/>
<path opacity="0.7" d="M126.724 107.55C126.724 107.55 123.124 107.55 124.474 109.35C125.599 110.925 126.724 107.55 126.724 107.55Z" fill="#F361F5"/>
</g>
<path opacity="0.7" d="M144.947 149.625C144.947 149.625 146.072 147.6 146.072 144.225C146.072 144.225 142.472 148.05 144.947 149.625Z" fill="#EDFF54"/>
<path opacity="0.7" d="M167.902 136.35C167.902 136.35 165.427 138.6 165.877 140.625C166.327 142.65 168.577 140.175 167.902 136.35Z" fill="#EEF8FB"/>
<path opacity="0.7" d="M178.252 143.55C179.377 141.75 172.177 139.5 172.177 139.5C173.527 141.3 177.127 145.125 178.252 143.55Z" fill="#EDFF54"/>
<path opacity="0.7" d="M169.925 143.775C171.725 141.075 164.75 142.425 164.75 142.425C164.75 142.425 169.25 144.9 169.925 143.775Z" fill="#F361F5"/>
<g opacity="0.7">
<path opacity="0.7" d="M172.628 144.45C172.628 144.45 171.278 147.375 166.103 148.5C166.103 148.5 167.228 150.75 166.103 155.25C166.103 155.25 171.278 149.175 174.203 157.95C174.203 157.95 176.678 159.3 178.478 151.2C178.478 151.2 176.228 148.275 175.553 144.225C175.778 144.225 175.103 149.4 172.628 144.45Z" fill="#FF3333"/>
<path opacity="0.7" d="M170.375 124.875C170.375 124.875 176.225 122.85 173.75 118.125C173.975 117.9 174.425 117.675 174.425 117.675C171.95 113.85 172.85 119.25 172.85 119.25C173.075 118.8 173.3 118.575 173.3 118.35C173.3 120.15 173.075 122.625 170.375 124.875Z" fill="#FF3333"/>
<path opacity="0.7" d="M109.853 106.875C109.853 106.875 114.128 112.95 114.578 106.2C114.803 104.625 114.128 104.4 113.453 104.4C113.228 99.9001 110.078 98.5501 110.078 98.5501C108.053 99.6751 108.278 101.25 108.278 101.25C110.078 101.475 111.203 103.725 111.878 105.525C111.653 106.2 110.978 106.875 109.853 106.875Z" fill="#FF3333"/>
</g>
<path opacity="0.7" d="M129.429 89.7751C130.779 87.0751 126.729 83.9251 126.729 83.9251C127.179 90.4501 128.079 92.4751 129.429 89.7751Z" fill="#EDFF54"/>
<path opacity="0.7" d="M126.054 87.3001C126.054 87.3001 124.479 87.5251 124.479 90.0001C124.479 90.0001 126.504 89.7751 126.054 87.3001Z" fill="white"/>
</g>
</g>
<defs>
<filter id="filter0_d" x="0" y="0" width="259" height="259" filterUnits="userSpaceOnUse" color-interpolation-filters="sRGB">
<feFlood flood-opacity="0" result="BackgroundImageFix"/>
<feColorMatrix in="SourceAlpha" type="matrix" values="0 0 0 0 0 0 0 0 0 0 0 0 0 0 0 0 0 0 127 0"/>
<feOffset dx="2" dy="2"/>
<feGaussianBlur stdDeviation="2"/>
<feColorMatrix type="matrix" values="0 0 0 0 0 0 0 0 0 0 0 0 0 0 0 0 0 0 0.25 0"/>
<feBlend mode="normal" in2="BackgroundImageFix" result="effect1_dropShadow"/>
<feBlend mode="normal" in="SourceGraphic" in2="effect1_dropShadow" result="shape"/>
</filter>
</defs>
</svg>

