<svg width="20" height="20" viewBox="0 0 20 20" fill="none" xmlns="http://www.w3.org/2000/svg">
<path d="M10 0C4.47 0 0 4.47 0 10C0 15.53 4.47 20 10 20C12.6522 20 15.1957 18.9464 17.0711 17.0711C18.9464 15.1957 20 12.6522 20 10C20 4.47 15.5 0 10 0ZM4.76 6.82L5.82 5.76L6.88 6.82L7.94 5.76L9 6.82L7.94 7.88L9 8.94L7.94 10L6.88 8.94L5.82 10L4.76 8.94L5.82 7.88L4.76 6.82V6.82ZM4.89 15.5C5.69 13.46 7.67 12 10 12C12.33 12 14.31 13.46 15.11 15.5H4.89ZM15.24 8.94L14.18 10L13.12 8.94L12.06 10L11 8.94L12.06 7.88L11 6.82L12.06 5.76L13.12 6.82L14.18 5.76L15.24 6.82L14.18 7.88L15.24 8.94Z" fill="#FF0000"/>
</svg>
