<svg width="117" height="126" viewBox="0 0 117 126" fill="none" xmlns="http://www.w3.org/2000/svg">
<g filter="url(#filter0_d)">
<path d="M88.4444 10H28.5556C23.8372 10 20 13.8571 20 18.6V70.2C20 74.9429 23.8372 78.8 28.5556 78.8H43.5278L58.5 96L73.4722 78.8H88.4444C93.1628 78.8 97 74.9429 97 70.2V18.6C97 13.8571 93.1628 10 88.4444 10Z" fill="white"/>
<path d="M53.0792 41.1902L42.5619 27.7588L37.2891 41.1902H53.0792Z" fill="#F4900C"/>
<path d="M58.4128 24.8398L49.1152 42.3909H67.709L58.4128 24.8398Z" fill="#F4900C"/>
<path d="M63.9199 41.1902L74.4373 27.7588L79.7101 41.1902H63.9199Z" fill="#F4900C"/>
<path d="M73.6136 38.5189L66.8391 21.9907L58.5091 38.5203L58.4992 38.5246L58.4893 38.5189L50.1593 21.9893L43.3848 38.5189C38.9449 32.3465 34.8125 28.3926 34.8125 28.3926C34.8125 28.3926 37.2492 46.3956 37.2492 63.7498H79.7492C79.7492 46.3956 82.1858 28.3926 82.1858 28.3926C82.1858 28.3926 78.0534 32.3465 73.6136 38.5189Z" fill="#FFCC4D"/>
<path d="M58.4395 53.3917C61.325 53.3917 63.6642 51.0526 63.6642 48.1671C63.6642 45.2815 61.325 42.9424 58.4395 42.9424C55.554 42.9424 53.2148 45.2815 53.2148 48.1671C53.2148 51.0526 55.554 53.3917 58.4395 53.3917Z" fill="#5C913B"/>
<path d="M70.4893 51.584C72.3764 51.584 73.9063 50.0542 73.9063 48.167C73.9063 46.2798 72.3764 44.75 70.4893 44.75C68.6021 44.75 67.0723 46.2798 67.0723 48.167C67.0723 50.0542 68.6021 51.584 70.4893 51.584Z" fill="#981CEB"/>
<path d="M79.5401 50.9805C81.0939 50.9805 82.3536 49.7209 82.3536 48.167C82.3536 46.6132 81.0939 45.3535 79.5401 45.3535C77.9862 45.3535 76.7266 46.6132 76.7266 48.167C76.7266 49.7209 77.9862 50.9805 79.5401 50.9805Z" fill="#DD2E44"/>
<path d="M46.3877 51.584C48.2749 51.584 49.8047 50.0542 49.8047 48.167C49.8047 46.2798 48.2749 44.75 46.3877 44.75C44.5005 44.75 42.9707 46.2798 42.9707 48.167C42.9707 50.0542 44.5005 51.584 46.3877 51.584Z" fill="#981CEB"/>
<path d="M37.3369 50.9805C38.8908 50.9805 40.1504 49.7209 40.1504 48.167C40.1504 46.6132 38.8908 45.3535 37.3369 45.3535C35.7831 45.3535 34.5234 46.6132 34.5234 48.167C34.5234 49.7209 35.7831 50.9805 37.3369 50.9805Z" fill="#DD2E44"/>
<path d="M79.7507 65.1664H37.2507C36.8749 65.1664 36.5146 65.0171 36.2489 64.7514C35.9832 64.4858 35.834 64.1254 35.834 63.7497C35.834 63.374 35.9832 63.0136 36.2489 62.748C36.5146 62.4823 36.8749 62.333 37.2507 62.333H79.7507C80.1264 62.333 80.4867 62.4823 80.7524 62.748C81.0181 63.0136 81.1673 63.374 81.1673 63.7497C81.1673 64.1254 81.0181 64.4858 80.7524 64.7514C80.4867 65.0171 80.1264 65.1664 79.7507 65.1664ZM79.7507 60.2279H37.2507C36.8749 60.2279 36.5146 60.0786 36.2489 59.8129C35.9832 59.5473 35.834 59.1869 35.834 58.8112C35.834 58.4355 35.9832 58.0751 36.2489 57.8095C36.5146 57.5438 36.8749 57.3945 37.2507 57.3945H79.7507C80.1264 57.3945 80.4867 57.5438 80.7524 57.8095C81.0181 58.0751 81.1673 58.4355 81.1673 58.8112C81.1673 59.1869 81.0181 59.5473 80.7524 59.8129C80.4867 60.0786 80.1264 60.2279 79.7507 60.2279Z" fill="#FFAC33"/>
<path d="M35.0499 30.3859C36.1507 30.3859 37.0431 29.4935 37.0431 28.3927C37.0431 27.2918 36.1507 26.3994 35.0499 26.3994C33.949 26.3994 33.0566 27.2918 33.0566 28.3927C33.0566 29.4935 33.949 30.3859 35.0499 30.3859Z" fill="#FFCC4D"/>
<path d="M42.5617 29.4467C43.4943 29.4467 44.2504 28.6906 44.2504 27.758C44.2504 26.8254 43.4943 26.0693 42.5617 26.0693C41.6291 26.0693 40.873 26.8254 40.873 27.758C40.873 28.6906 41.6291 29.4467 42.5617 29.4467Z" fill="#F4900C"/>
<path d="M50.1601 24.5176C51.556 24.5176 52.6875 23.386 52.6875 21.9902C52.6875 20.5944 51.556 19.4629 50.1601 19.4629C48.7643 19.4629 47.6328 20.5944 47.6328 21.9902C47.6328 23.386 48.7643 24.5176 50.1601 24.5176Z" fill="#FFCC4D"/>
<path d="M81.9503 30.3859C83.0511 30.3859 83.9435 29.4935 83.9435 28.3927C83.9435 27.2918 83.0511 26.3994 81.9503 26.3994C80.8494 26.3994 79.957 27.2918 79.957 28.3927C79.957 29.4935 80.8494 30.3859 81.9503 30.3859Z" fill="#FFCC4D"/>
<path d="M74.4367 29.4467C75.3693 29.4467 76.1254 28.6906 76.1254 27.758C76.1254 26.8254 75.3693 26.0693 74.4367 26.0693C73.5041 26.0693 72.748 26.8254 72.748 27.758C72.748 28.6906 73.5041 29.4467 74.4367 29.4467Z" fill="#F4900C"/>
<path d="M66.8398 24.5176C68.2356 24.5176 69.3672 23.386 69.3672 21.9902C69.3672 20.5944 68.2356 19.4629 66.8398 19.4629C65.444 19.4629 64.3125 20.5944 64.3125 21.9902C64.3125 23.386 65.444 24.5176 66.8398 24.5176Z" fill="#FFCC4D"/>
<path d="M58.4121 27.3672C59.8079 27.3672 60.9394 26.2356 60.9394 24.8398C60.9394 23.444 59.8079 22.3125 58.4121 22.3125C57.0163 22.3125 55.8848 23.444 55.8848 24.8398C55.8848 26.2356 57.0163 27.3672 58.4121 27.3672Z" fill="#F4900C"/>
</g>
<defs>
<filter id="filter0_d" x="0" y="0" width="117" height="126" filterUnits="userSpaceOnUse" color-interpolation-filters="sRGB">
<feFlood flood-opacity="0" result="BackgroundImageFix"/>
<feColorMatrix in="SourceAlpha" type="matrix" values="0 0 0 0 0 0 0 0 0 0 0 0 0 0 0 0 0 0 127 0"/>
<feOffset dy="10"/>
<feGaussianBlur stdDeviation="10"/>
<feColorMatrix type="matrix" values="0 0 0 0 0 0 0 0 0 0 0 0 0 0 0 0 0 0 0.25 0"/>
<feBlend mode="normal" in2="BackgroundImageFix" result="effect1_dropShadow"/>
<feBlend mode="normal" in="SourceGraphic" in2="effect1_dropShadow" result="shape"/>
</filter>
</defs>
</svg>
