<svg width="20" height="29" viewBox="0 0 20 29" fill="none" xmlns="http://www.w3.org/2000/svg">
<path d="M10 0C4.48571 0 0 4.553 0 10.15C0 17.7625 10 29 10 29C10 29 20 17.7625 20 10.15C20 4.553 15.5143 0 10 0ZM11.2571 19.9375H8.75714V17.4H11.2571V19.9375ZM11.2571 15.776H8.75714C8.75714 11.658 12.5 11.977 12.5 9.425C12.5 8.75201 12.2366 8.10659 11.7678 7.63072C11.2989 7.15484 10.663 6.8875 10 6.8875C9.33696 6.8875 8.70107 7.15484 8.23223 7.63072C7.76339 8.10659 7.5 8.75201 7.5 9.425H5C5 8.07903 5.52678 6.78818 6.46447 5.83643C7.40215 4.88469 8.67392 4.35 10 4.35C11.3261 4.35 12.5979 4.88469 13.5355 5.83643C14.4732 6.78818 15 8.07903 15 9.425C15 12.6005 11.2571 12.9195 11.2571 15.776Z" fill="url(#paint0_linear)"/>
<defs>
<linearGradient id="paint0_linear" x1="-5" y1="5.19421e-07" x2="23.9968" y2="28.5683" gradientUnits="userSpaceOnUse">
<stop stop-color="#5095F2"/>
<stop offset="1" stop-color="#5A925E"/>
</linearGradient>
</defs>
</svg>
